HIERARCHY
ROOT Hips
{
	OFFSET 0.00000 0.00000 0.00000
	CHANNELS 6 Xposition Yposition Zposition Zrotation Yrotation Xrotation 
	JOINT LHipJoint
	{
		OFFSET 0 0 0
		CHANNELS 3 Zrotation Yrotation Xrotation
		JOINT LeftUpLeg
		{
			OFFSET 1.54859 -1.61379 0.86856
			CHANNELS 3 Zrotation Yrotation Xrotation
			JOINT LeftLeg
			{
				OFFSET 2.25087 -6.18423 0.00000
				CHANNELS 3 Zrotation Yrotation Xrotation
				JOINT LeftFoot
				{
					OFFSET 2.40328 -6.60297 0.00000
					CHANNELS 3 Zrotation Yrotation Xrotation
					JOINT LeftToeBase
					{
						OFFSET 0.17435 -0.47901 2.02453
						CHANNELS 3 Zrotation Yrotation Xrotation
						End Site
						{
							OFFSET 0.00000 -0.00000 1.04844
						}
					}
				}
			}
		}
	}
	JOINT RHipJoint
	{
		OFFSET 0 0 0
		CHANNELS 3 Zrotation Yrotation Xrotation
		JOINT RightUpLeg
		{
			OFFSET -1.54669 -1.61379 0.86856
			CHANNELS 3 Zrotation Yrotation Xrotation
			JOINT RightLeg
			{
				OFFSET -2.28132 -6.26789 0.00000
				CHANNELS 3 Zrotation Yrotation Xrotation
				JOINT RightFoot
				{
					OFFSET -2.51636 -6.91365 0.00000
					CHANNELS 3 Zrotation Yrotation Xrotation
					JOINT RightToeBase
					{
						OFFSET -0.15124 -0.41552 2.21090
						CHANNELS 3 Zrotation Yrotation Xrotation
						End Site
						{
							OFFSET -0.00000 -0.00000 1.13399
						}
					}
				}
			}
		}
	}
	JOINT LowerBack
	{
		OFFSET 0 0 0
		CHANNELS 3 Zrotation Yrotation Xrotation
		JOINT Spine
		{
			OFFSET -0.04287 2.26161 -0.25690
			CHANNELS 3 Zrotation Yrotation Xrotation
			JOINT Spine1
			{
				OFFSET 0.02248 2.28395 -0.10140
				CHANNELS 3 Zrotation Yrotation Xrotation
				JOINT Neck
				{
					OFFSET 0 0 0
					CHANNELS 3 Zrotation Yrotation Xrotation
					JOINT Neck1
					{
						OFFSET -0.11644 1.38496 0.11345
						CHANNELS 3 Zrotation Yrotation Xrotation
						JOINT Head
						{
							OFFSET 0.29383 1.36600 0.06642
							CHANNELS 3 Zrotation Yrotation Xrotation
							End Site
							{
								OFFSET 0.11075 1.41395 -0.00294
							}
						}
					}
				}
				JOINT LeftShoulder
				{
					OFFSET 0 0 0
					CHANNELS 3 Zrotation Yrotation Xrotation
					JOINT LeftArm
					{
						OFFSET 3.51628 0.59542 -0.30346
						CHANNELS 3 Zrotation Yrotation Xrotation
						JOINT LeftForeArm
						{
							OFFSET 4.76405 -0.00000 0.00000
							CHANNELS 3 Zrotation Yrotation Xrotation
							JOINT LeftHand
							{
								OFFSET 3.13759 -0.00000 -0.00000
								CHANNELS 3 Zrotation Yrotation Xrotation
								JOINT LeftFingerBase
								{
									OFFSET 0 0 0
									CHANNELS 3 Zrotation Yrotation Xrotation
									JOINT LeftHandIndex1
									{
										OFFSET 0.73226 -0.00000 -0.00000
										CHANNELS 3 Zrotation Yrotation Xrotation
										End Site
										{
											OFFSET 0.59037 -0.00000 -0.00000
										}
									}
								}
								JOINT LThumb
								{
									OFFSET 0 0 0
									CHANNELS 3 Zrotation Yrotation Xrotation
									End Site
									{
										OFFSET 0.59938 -0.00000 0.59938
									}
								}
							}
						}
					}
				}
				JOINT RightShoulder
				{
					OFFSET 0 0 0
					CHANNELS 3 Zrotation Yrotation Xrotation
					JOINT RightArm
					{
						OFFSET -3.30990 0.84213 -0.36430
						CHANNELS 3 Zrotation Yrotation Xrotation
						JOINT RightForeArm
						{
							OFFSET -5.10161 -0.00000 -0.00000
							CHANNELS 3 Zrotation Yrotation Xrotation
							JOINT RightHand
							{
								OFFSET -3.23267 -0.00000 -0.00000
								CHANNELS 3 Zrotation Yrotation Xrotation
								JOINT RightFingerBase
								{
									OFFSET 0 0 0
									CHANNELS 3 Zrotation Yrotation Xrotation
									JOINT RightHandIndex1
									{
										OFFSET -0.70200 -0.00000 -0.00000
										CHANNELS 3 Zrotation Yrotation Xrotation
										End Site
										{
											OFFSET -0.56597 -0.00000 -0.00000
										}
									}
								}
								JOINT RThumb
								{
									OFFSET 0 0 0
									CHANNELS 3 Zrotation Yrotation Xrotation
									End Site
									{
										OFFSET -0.57461 -0.00000 0.57461
									}
								}
							}
						}
					}
				}
			}
		}
	}
}
MOTION
Frames: 10
Frame Time: .0083333
-28.1518 15.257 -1.1363 0 0 0 0 0 0 -21 0 0 0 0 0 0 0 0 0 0 0 0 0 0 21 0 0 0 0 0 0 0 0 0 0 0 0 0 0 0 0 0 0 0 0 0 0 -16 0 0 21 0 0 11 0 0 0 -8 0 0 0 0 0 0 0 0 0 0 0 0 0 0 0 0 0 0 0 0 8 0 0 0 0 0 0 0 0 0 0 0 0 0 0 0 0 0
-28.1518 15.2570 -1.1363 122.3760 84.2561 136.5570 0.0000 0.0000 0.0000 -19.8844 6.0993 19.5185 0.7563 5.5541 15.4959 0.0911 3.8496 5.6199 0.8210 -5.7816 -16.1519 0.0000 0.0000 0.0000 6.0269 19.9113 -63.5747 -19.0657 -19.9791 87.2674 -0.2531 0.1367 -9.4558 -3.2642 11.1109 -32.6549 -11.7467 -4.5220 16.5185 2.6204 -7.2687 6.1379 10.5837 -3.7602 -0.6643 -13.4287 1.5439 -11.8441 12.1785 3.7890 -1.6619 6.0670 2.3152 0.9558 0.0000 -0.0000 0.0000 -82.3846 -2.6784 42.3520 85.1521 -59.9110 -55.8028 -0.0000 0.0000 -22.2347 37.6751 18.5971 13.8345 -7.1250 0.0000 -0.0000 9.9757 52.7381 1.9148 0.0000 -0.0000 0.0000 82.9292 19.6126 1.8106 -85.9640 59.9384 -56.5055 0.0000 -0.0000 -44.4447 -22.7528 26.0510 -10.4361 7.1250 -0.0000 -0.0000 4.2552 -2.1196 4.1063
-27.4446 15.2991 -1.1680 115.5810 84.9025 129.6810 0.0000 0.0000 0.0000 -20.5940 5.6089 23.3232 0.5985 4.9526 13.7735 -0.1644 9.4532 3.1200 0.8297 -5.8110 -16.2372 0.0000 0.0000 0.0000 5.8047 20.2240 -63.5283 -16.8249 -19.7566 80.6804 -0.2636 2.2284 -9.1818 -3.2656 11.1131 -32.6621 -11.6793 -4.7236 15.8722 2.8677 -7.4717 6.0549 10.7668 -3.8973 -0.3325 -8.3524 -0.5810 -9.6222 9.6014 0.5986 -7.8807 4.2871 0.6085 -0.8022 -0.0000 0.0000 0.0000 -81.3028 -1.7996 43.0190 86.0850 -59.9420 -56.6101 -0.0000 0.0000 -24.1037 36.8396 18.7546 13.5429 -7.1250 0.0000 -0.0000 9.0647 52.7442 1.7389 -0.0000 0.0000 0.0000 84.1939 19.8811 2.7573 -90.3298 59.9996 -60.2856 0.0000 -0.0000 -43.2842 -21.6957 24.8960 -9.5081 7.1250 -0.0000 -0.0000 4.7648 -3.5178 4.4792
-26.7406 15.3307 -1.1970 108.3530 85.1387 122.3750 0.0000 0.0000 0.0000 -21.4160 5.4962 26.2951 0.5556 4.7746 13.2667 -0.6015 14.5837 0.2853 0.5236 -4.6372 -12.8765 0.0000 0.0000 0.0000 5.6048 20.0385 -63.2569 -14.6680 -19.3043 74.2345 -0.2471 3.8543 -8.8533 -3.1409 10.9197 -32.0095 -11.7113 -4.9536 15.5516 3.0539 -7.7742 5.8262 10.9953 -4.0558 -0.2976 -7.9742 -0.1920 -9.1301 8.7864 1.0486 -8.4797 4.3845 0.8290 -1.2344 0.0000 0.0000 0.0000 -80.4487 0.1739 43.4683 88.0997 -59.9864 -58.3544 -0.0000 0.0000 -24.7482 35.6963 18.0745 12.5663 -7.1250 0.0000 -0.0000 7.8563 51.7058 1.3041 0.0000 0.0000 0.0000 85.3514 19.8688 4.1234 -95.2543 59.8954 -64.5488 0.0000 -0.0000 -40.3155 -22.1064 23.3425 -9.1429 7.1250 -0.0000 -0.0000 4.3498 -5.0655 3.9604
-26.0350 15.3589 -1.2216 100.4570 85.0641 114.3630 0.0000 0.0000 0.0000 -22.0300 6.1834 28.6889 0.5478 4.7417 13.1734 -0.8748 17.3839 0.0400 1.1624 -6.8444 -19.2553 0.0000 0.0000 0.0000 5.4850 19.5888 -62.6550 -12.5436 -18.6111 67.7020 -0.2103 4.8845 -8.3316 -3.1118 10.8739 -31.8558 -12.2816 -5.0644 15.8056 3.5372 -8.0762 5.3012 11.9611 -4.1820 -0.7534 -8.2837 0.2119 -9.3099 8.2235 1.5697 -8.0788 4.2518 1.0963 -1.1180 0.0000 0.0000 0.0000 -80.5900 2.2498 44.0894 87.8254 -59.9821 -58.1168 -0.0000 0.0000 -23.6767 34.5004 15.9831 10.7164 -7.1250 0.0000 -0.0000 6.6950 49.0285 0.6679 0.0000 0.0000 0.0000 85.7435 19.7045 5.8215 -99.9000 59.6264 -68.5629 0.0000 -0.0000 -36.3891 -23.2213 21.9434 -9.1086 7.1250 -0.0000 -0.0000 3.5111 -6.3449 3.1076
-25.3248 15.3925 -1.2382 93.6751 84.8934 107.4790 0.0000 0.0000 0.0000 -22.3026 7.1920 30.0289 0.6536 5.1713 14.3977 -0.9446 18.1692 0.3831 1.6909 -8.1902 -23.2933 0.0000 0.0000 0.0000 5.6104 19.0456 -61.7119 -10.5429 -17.7040 61.2879 -0.1597 5.3778 -7.5197 -3.1236 10.8925 -31.9182 -12.9485 -5.2232 15.5235 4.0242 -8.3682 5.0891 12.8944 -4.3678 -0.5550 -8.8559 0.6662 -9.1553 7.7017 2.1859 -8.0791 4.1872 1.4153 -1.2055 0.0000 -0.0000 0.0000 -80.9817 3.8784 44.5793 85.8222 -59.9339 -56.3827 -0.0000 0.0000 -21.7863 35.2394 14.3171 9.9094 -7.1250 0.0000 -0.0000 7.4643 47.1933 0.4062 0.0000 -0.0000 0.0000 86.1139 20.2045 7.6427 -104.1123 59.2339 -72.1902 0.0000 -0.0000 -32.3720 -24.3036 20.8142 -9.1164 7.1250 -0.0000 -0.0000 2.7115 -7.3591 2.3446
-24.6162 15.4283 -1.2463 88.1731 84.5856 102.0090 0.0000 0.0000 0.0000 -22.4074 8.2828 30.3971 0.8755 5.9655 16.6843 -0.8886 17.6411 0.3734 1.3186 -7.2730 -20.5267 0.0000 0.0000 0.0000 5.8067 18.3686 -60.6933 -8.7582 -16.6496 55.2503 -0.0927 5.7014 -6.2866 -3.1948 11.0039 -32.2929 -12.2811 -5.5528 13.9044 3.2212 -8.5006 5.7169 11.3393 -4.5311 0.7851 -7.9097 0.8700 -9.0684 7.9113 2.4552 -8.8678 4.0776 1.5369 -1.4956 -0.0000 0.0000 0.0000 -78.8439 4.5840 45.6079 83.2026 -59.8247 -54.1167 -0.0000 0.0000 -20.1306 36.6434 15.0437 10.9275 -7.1250 0.0000 -0.0000 8.8624 48.2974 0.7262 -0.0000 0.0000 0.0000 88.8749 21.6730 9.1223 -108.4443 58.6747 -75.9022 0.0000 -0.0000 -28.7084 -25.1134 20.1150 -9.1570 7.1250 -0.0000 -0.0000 2.1229 -7.9698 1.8093
-23.9183 15.4479 -1.2507 81.5619 84.0565 95.5614 0.0000 0.0000 0.0000 -22.7213 9.4778 29.8298 1.2616 7.1199 20.0711 -0.6789 15.8313 1.1674 1.3291 -7.3005 -20.6089 0.0000 0.0000 0.0000 5.9600 17.6701 -59.9126 -7.2574 -15.5449 49.8414 -0.0293 6.2259 -5.1077 -3.5629 11.5548 -34.1747 -13.4830 -5.4794 14.0676 3.9481 -8.6427 5.0194 12.9266 -4.5957 0.3101 -8.6603 1.2580 -9.1759 7.3016 2.9648 -8.2767 4.0148 1.8053 -1.3304 -0.0000 0.0000 0.0000 -80.1607 7.1436 46.5960 80.2536 -59.6380 -51.5696 -0.0000 0.0000 -18.0273 37.4970 15.8483 11.8339 -7.1250 0.0000 -0.0000 9.7458 49.4181 1.0709 -0.0000 0.0000 0.0000 88.5925 22.1578 10.9275 -112.3772 58.0207 -79.2505 0.0000 -0.0000 -26.1109 -25.2992 19.7082 -9.0569 7.1250 -0.0000 -0.0000 1.9616 -8.3759 1.6559
-23.2256 15.4523 -1.2540 73.1465 83.5477 87.2341 0.0000 0.0000 0.0000 -23.0811 10.7360 28.7115 1.8640 8.5769 24.4806 -0.4855 13.5764 1.2926 1.4736 -7.6708 -21.7186 0.0000 0.0000 0.0000 6.2726 17.1775 -59.0286 -6.1105 -14.5346 45.4235 0.0784 6.9654 -2.6712 -2.5287 9.8900 -28.6211 -13.4671 -5.4666 13.1200 3.6149 -8.5212 5.0914 12.3954 -4.5718 0.7974 -8.2454 1.6478 -9.2124 7.1414 3.4408 -8.0819 3.8817 2.0304 -1.2900 0.0000 0.0000 0.0000 -79.4092 9.1014 47.8571 76.9533 -59.3470 -48.7260 -0.0000 0.0000 -16.9741 38.0283 14.6375 11.1795 -7.1250 0.0000 -0.0000 10.2431 48.0549 0.7796 0.0000 0.0000 0.0000 90.2622 23.4193 12.7758 -115.9709 57.2913 -82.2869 0.0000 -0.0000 -23.2215 -25.0640 19.7006 -8.9591 7.1250 -0.0000 -0.0000 2.1119 -8.4235 1.7810
-22.5338 15.4407 -1.2639 65.9578 83.1254 79.9076 0.0000 0.0000 0.0000 -23.2734 11.9088 27.3665 2.7232 10.2329 29.7342 -0.3452 11.4637 1.0608 1.5957 -7.9676 -22.6158 0.0000 0.0000 0.0000 7.3072 16.2669 -58.0503 -5.3157 -13.7307 42.1694 0.1316 7.7202 -1.7532 -2.7607 10.2972 -29.9446 -13.7734 -5.2920 12.7505 3.8213 -8.2992 4.9635 12.7570 -4.4791 0.8741 -8.0610 2.1227 -9.0028 6.2996 3.9875 -7.8321 3.5493 2.2898 -1.2668 0.0000 0.0000 0.0000 -79.8197 11.2259 49.3412 72.9398 -58.8712 -45.2815 -0.0000 0.0000 -16.8988 35.6966 17.7429 12.3503 -7.1250 0.0000 -0.0000 7.8677 51.3169 1.2307 0.0000 0.0000 0.0000 90.6825 24.4957 14.6360 -119.0544 56.5567 -84.8710 0.0000 -0.0000 -19.7779 -25.1139 19.9138 -9.0708 7.1250 -0.0000 -0.0000 2.1017 -8.1860 1.7822
